<?xml version="1.0" standalone="no"?>
<!DOCTYPE svg PUBLIC "-//W3C//DTD SVG 20010904//EN"
 "http://www.w3.org/TR/2001/REC-SVG-20010904/DTD/svg10.dtd">
<svg version="1.0" xmlns="http://www.w3.org/2000/svg"
 width="441.000000pt" height="55.000000pt" viewBox="0 0 441.000000 55.000000"
 preserveAspectRatio="xMidYMid meet">

<g transform="translate(0.000000,55.000000) scale(0.100000,-0.100000)"
fill="#000000" stroke="none">
<path d="M1778 389 c-52 -27 -70 -58 -75 -132 -9 -120 59 -193 177 -191 67 2
82 5 95 22 6 7 49 28 95 47 80 32 120 37 120 14 0 -16 -110 -62 -162 -67 -27
-3 -45 -9 -42 -14 10 -15 91 1 169 33 l70 29 75 -32 c70 -29 83 -31 200 -32
109 0 130 3 166 21 63 33 79 64 79 155 0 87 -17 121 -76 150 -39 19 -130 23
-161 7 -15 -8 -26 -8 -44 2 -31 16 -107 -1 -184 -40 l-55 -29 -68 34 c-82 42
-147 53 -166 30 -12 -14 -16 -14 -42 -1 -40 21 -126 18 -171 -6z m151 2 c8 -5
-10 -10 -50 -13 -35 -2 -79 -11 -97 -20 -22 -12 -32 -13 -30 -5 11 34 139 62
177 38z m746 -15 c37 -24 25 -31 -20 -12 -21 9 -60 16 -87 16 -33 0 -47 4 -42
11 10 17 117 6 149 -15z m-537 -26 c56 -24 62 -34 33 -49 -14 -8 -34 -3 -87
24 -38 19 -75 35 -81 35 -7 0 -13 5 -13 11 0 18 87 5 148 -21z m322 20 c0 -5
-6 -10 -12 -10 -7 0 -44 -16 -82 -35 -53 -27 -73 -32 -87 -24 -25 13 -24 26 2
40 60 31 179 51 179 29z m-422 -44 c81 -41 90 -51 61 -66 -17 -10 -32 -6 -87
20 -36 17 -87 34 -113 37 -41 5 -48 3 -59 -16 -14 -27 -9 -73 8 -79 11 -3 11
0 1 16 -10 16 -10 26 -2 45 11 23 15 24 47 17 50 -11 146 -52 146 -62 0 -18
-76 -41 -137 -42 -50 -1 -67 3 -95 23 -22 17 -28 19 -18 6 39 -47 133 -58 231
-25 46 16 64 18 80 10 32 -17 18 -33 -56 -64 -127 -52 -225 -46 -291 20 -26
27 -34 43 -34 70 0 128 156 172 318 90z m618 25 c29 -13 47 -30 61 -60 26 -51
20 -84 -23 -127 -64 -63 -165 -69 -289 -17 -74 30 -88 46 -56 63 16 8 34 6 80
-10 98 -33 192 -22 231 25 11 14 6 12 -17 -4 -42 -31 -113 -37 -177 -14 -27
10 -51 23 -53 29 -8 23 167 80 186 61 15 -15 14 -64 -1 -70 -10 -4 -10 -6 0
-6 21 -2 36 43 23 68 -23 43 -90 37 -195 -16 -40 -20 -53 -23 -73 -14 -31 14
-23 25 40 58 109 56 192 66 263 34z m-391 -71 c3 -5 -4 -14 -16 -21 -16 -8
-28 -8 -48 1 l-26 12 23 19 c24 19 51 14 67 -11z m-94 -30 c24 -13 24 -26 1
-39 -14 -7 -25 -6 -42 6 -22 15 -22 17 -5 30 22 16 21 16 46 3z m154 -3 c17
-13 17 -15 -5 -30 -17 -12 -28 -13 -42 -6 -23 12 -23 25 0 38 22 14 25 13 47
-2z m-76 -46 c12 -8 12 -12 2 -25 -8 -9 -19 -16 -26 -16 -7 0 -18 7 -26 16
-10 13 -10 17 2 25 8 5 19 9 24 9 6 0 16 -4 24 -9z m130 -65 c104 -43 120 -56
63 -56 -43 0 -135 30 -168 55 -16 13 -17 16 -4 25 20 13 13 14 109 -24z m-492
-40 c29 0 53 -4 53 -8 0 -4 -25 -8 -55 -8 -58 0 -101 16 -126 46 -11 13 -4 12
31 -6 29 -15 64 -23 97 -24z m813 36 c0 -5 -17 -18 -39 -30 -40 -23 -123 -30
-150 -13 -9 6 7 9 45 8 42 0 71 6 99 21 47 25 45 24 45 14z"/>
<path d="M1785 289 c-11 -17 1 -21 15 -4 8 9 8 15 2 15 -6 0 -14 -5 -17 -11z"/>
<path d="M1888 247 c-3 -19 -2 -25 4 -19 6 6 8 18 6 28 -3 14 -5 12 -10 -9z"/>
<path d="M2630 308 c0 -2 9 -11 20 -21 11 -9 20 -13 20 -7 0 5 -9 14 -20 20
-11 6 -20 9 -20 8z"/>
<path d="M2554 255 c-7 -17 3 -35 19 -35 8 0 7 3 -2 9 -8 5 -11 16 -8 25 4 9
4 16 1 16 -2 0 -7 -7 -10 -15z"/>
<path d="M547 250 c-202 -4 -370 -10 -373 -12 -3 -3 219 -8 493 -12 274 -3
612 -8 751 -10 l252 -5 0 25 0 24 -377 -2 c-208 -1 -543 -4 -746 -8z"/>
<path d="M2780 238 l0 -25 293 3 c1354 18 1435 26 365 39 l-658 8 0 -25z"/>
</g>
</svg>
